<?xml version="1.0" encoding="iso-8859-1"?>
<!-- Generator: Adobe Illustrator 19.0.0, SVG Export Plug-In . SVG Version: 6.00 Build 0)  -->
<svg version="1.1" id="Capa_1" xmlns="http://www.w3.org/2000/svg" xmlns:xlink="http://www.w3.org/1999/xlink" x="0px" y="0px"
	 viewBox="0 0 512 512" style="enable-background:new 0 0 512 512;" xml:space="preserve">
<path style="fill:#E1EBED;" d="M256,23.082C144.795,23.208,54.683,113.32,54.557,224.525v276.984c0,4.633,3.76,8.393,8.393,8.393
	h386.098c4.633,0,8.393-3.76,8.393-8.393V224.525C457.317,113.32,367.205,23.208,256,23.082z"/>
<path style="fill:#F2DFCE;" d="M365.115,167.869h-8.393v-30.367L249.587,83.934h-47.843l-46.466,55.716v28.219h-8.393
	c-13.908,0-25.18,11.272-25.18,25.18s11.272,25.18,25.18,25.18h9.913c9.199,54.792,61.079,91.749,115.863,82.549
	c42.303-7.101,75.44-40.247,82.549-82.549h9.904c13.908,0,25.18-11.272,25.18-25.18S379.023,167.869,365.115,167.869z"/>
<g>
	<path style="fill:#754C24;" d="M239.213,201.443h-16.787v-8.393c0-4.633-3.76-8.393-8.393-8.393s-8.393,3.76-8.393,8.393v8.393
		h-16.787v-8.393c0-13.908,11.272-25.18,25.18-25.18s25.18,11.272,25.18,25.18V201.443z"/>
	<path style="fill:#754C24;" d="M323.148,201.443h-16.787v-8.393c0-4.633-3.76-8.393-8.393-8.393c-4.633,0-8.393,3.76-8.393,8.393
		v8.393h-16.787v-8.393c0-13.908,11.272-25.18,25.18-25.18c13.908,0,25.18,11.272,25.18,25.18V201.443z"/>
</g>
<path style="fill:#D9415D;" d="M230.82,226.623h50.361v8.393c0,13.908-11.272,25.18-25.18,25.18l0,0l0,0
	c-13.908,0-25.18-11.272-25.18-25.18l0,0V226.623z"/>
<path style="fill:#F2DFCE;" d="M348.328,318.951h-41.967c-4.633,0-8.393-3.76-8.393-8.393v-25.18h-83.934v25.18
	c0,4.633-3.76,8.393-8.393,8.393h-41.967c-41.699,0.05-75.491,33.842-75.541,75.541V512h335.738V394.492
	C423.818,352.793,390.026,319.001,348.328,318.951z"/>
<path style="fill:#754C24;" d="M256,0c-23.166,0.025-41.942,18.801-41.967,41.967v25.18h83.934v-25.18
	C297.942,18.801,279.166,0.025,256,0z"/>
<path style="fill:#E88D9E;" d="M356.302,403.305c-22.956-22.914-60.139-22.914-83.095,0L256,420.511l-17.207-17.207
	c-22.948-22.948-60.147-22.948-83.087-0.008c-11.029,11.021-17.215,25.969-17.215,41.556V512h235.016v-67.148
	C373.55,429.257,367.356,414.3,356.302,403.305z"/>
<path style="fill:#689BA6;" d="M256,377.705c-32.432-0.034-58.721-26.322-58.754-58.754l0,0l16.787-8.393v8.393
	c0,23.174,18.793,41.967,41.967,41.967s41.967-18.793,41.967-41.967v-8.393l16.787,8.393l0,0
	C314.72,351.383,288.432,377.671,256,377.705z"/>
<path style="fill:#2F5259;" d="M256,394.492c-4.633,0-8.393-3.76-8.393-8.393v-16.787c0-4.633,3.76-8.393,8.393-8.393
	c4.633,0,8.393,3.76,8.393,8.393v16.787C264.393,390.732,260.633,394.492,256,394.492z"/>
<path style="fill:#754C24;" d="M264.393,50.361h-16.787c-50.965,0.059-92.269,41.363-92.328,92.328c0,4.633,3.76,8.393,8.393,8.393
	h16.787c19.934-0.025,37.116-14.051,41.128-33.574h1.679c4.012,19.523,21.193,33.549,41.128,33.574h83.934
	c4.633,0,8.393-3.76,8.393-8.393C356.663,91.724,315.358,50.419,264.393,50.361z"/>
<g>
</g>
<g>
</g>
<g>
</g>
<g>
</g>
<g>
</g>
<g>
</g>
<g>
</g>
<g>
</g>
<g>
</g>
<g>
</g>
<g>
</g>
<g>
</g>
<g>
</g>
<g>
</g>
<g>
</g>
</svg>
